<?xml version="1.0" encoding="UTF-8"?>
<svg xmlns="http://www.w3.org/2000/svg" viewBox="0 0 4785.79 830.46">
  <defs>
    <style>
      .cls-1 {
        fill: #000;
      }

      .cls-2 {
        fill: #fff;
      }
    </style>
  </defs>
  <g id="Background">
    <rect class="cls-1" width="4785.79" height="790.49"/>
  </g>
  <g id="Artwork">
    <g>
      <path class="cls-2" d="M720,720h160V240h-160v480ZM960,160h400V0h-400v160ZM720,0h160v160h-160V0ZM480,720h160V0h-160v720ZM240,560h160V0h-160v560ZM0,720h160V0H0v720ZM960,720h160V240h-160v480Z"/>
      <g>
        <path class="cls-2" d="M1508.07,156.51c0-89.79,56.22-156.51,144.76-156.51s144.34,66.71,144.34,156.51-55.8,156.09-144.34,156.09-144.76-66.29-144.76-156.09ZM1735.07,156.51c0-60-26.85-106.58-81.82-106.58s-83.08,46.57-83.08,106.58,28.11,106.16,83.08,106.16,81.82-46.57,81.82-106.16Z"/>
        <path class="cls-2" d="M1825.69,90.63h54.97v26.85h1.26c13.85-18.88,33.99-32.73,63.36-32.73,57.06,0,93.57,46.57,93.57,113.71s-37.76,113.71-93.15,113.71c-30.21,0-49.93-12.17-62.1-30.63h-.84v94.83h-57.06V90.63ZM1980.94,200.14c0-40.7-14.27-69.23-49.51-69.23s-49.93,30.63-49.93,69.23,18.04,64.62,52.03,64.62c28.95,0,47.41-23.92,47.41-64.62Z"/>
        <path class="cls-2" d="M2054.78,198.04c0-63.78,43.22-113.29,106.16-113.29,69.23,0,106.16,52.87,106.16,129.65h-156.09c4.2,33.15,22.66,53.71,54.97,53.71,22.24,0,35.25-10.07,41.54-26.43h56.22c-7.97,38.18-41.96,70.49-97.34,70.49-71.33,0-111.61-49.93-111.61-114.13ZM2111.85,174.97h95.67c-1.68-27.27-19.72-46.15-45.73-46.15-30.21,0-44.9,18.04-49.93,46.15Z"/>
        <path class="cls-2" d="M2349.33,120h1.26c14.69-23.08,34.41-35.25,63.78-35.25,44.48,0,74.27,33.57,74.27,80.56v140.56h-57.06v-132.17c0-23.08-13.43-39.44-37.34-39.44-25.17,0-43.64,20.14-43.64,49.51v122.1h-57.06V90.63h55.8v29.37Z"/>
        <path class="cls-2" d="M2515.48,156.93c0-88.95,55.38-156.93,143.92-156.93,73.85,0,117.48,44.06,123.78,101.12h-60.42c-5.46-30.21-28.11-49.93-63.36-49.93-55.39,0-81.82,46.16-81.82,105.74s31.89,105.32,82.24,105.32c35.66,0,60.84-21.4,64.62-52.87h59.58c-1.68,26.43-13.01,52.03-33.15,70.91-20.56,19.3-49.51,31.89-91.05,31.89-84.34,0-144.34-65.04-144.34-155.25Z"/>
        <path class="cls-2" d="M2802.46,198.46c0-64.2,45.74-113.71,112.45-113.71s112.45,49.51,112.45,113.71-45.73,113.71-112.45,113.71-112.45-49.51-112.45-113.71ZM2969.46,198.46c0-41.96-19.72-70.49-54.55-70.49s-54.55,28.53-54.55,70.49,19.3,70.07,54.55,70.07,54.55-28.11,54.55-70.07Z"/>
        <path class="cls-2" d="M3189.73,305.88v-25.18h-1.26c-14.69,19.72-31.47,31.05-61.68,31.05-47.83,0-74.69-30.63-74.69-77.62V90.63h56.64v133.85c0,25.18,11.33,39.02,35.67,39.02,26.85,0,43.22-20.14,43.22-48.67v-124.2h57.06v215.25h-54.96Z"/>
        <path class="cls-2" d="M3336.58,125.04h1.26c13.01-24.34,27.69-36.92,52.87-36.92,6.29,0,10.07.42,13.43,1.68v49.93h-1.26c-37.34-3.78-64.2,15.94-64.2,61.26v104.9h-57.06V90.63h54.97v34.41Z"/>
        <path class="cls-2" d="M3415.46,236.23h52.87c3.78,24.76,21.4,35.67,46.99,35.67s39.44-9.65,39.44-24.76c0-20.56-27.27-22.66-56.64-28.53-38.6-7.55-76.36-18.04-76.36-65.04s38.6-68.81,87.69-68.81c56.64,0,88.11,28.11,92.31,71.33h-51.61c-2.52-23.08-17.2-31.47-41.54-31.47-22.24,0-36.92,8.39-36.92,23.92,0,18.46,28.53,20.14,59.16,26.43,36.08,7.55,75.95,17.62,75.95,67.97,0,43.22-36.92,69.23-90.63,69.23-62.52,0-97.34-30.21-100.7-75.95Z"/>
        <path class="cls-2" d="M3623.98,198.04c0-63.78,43.22-113.29,106.16-113.29,69.23,0,106.16,52.87,106.16,129.65h-156.09c4.2,33.15,22.66,53.71,54.97,53.71,22.24,0,35.25-10.07,41.54-26.43h56.22c-7.97,38.18-41.96,70.49-97.34,70.49-71.33,0-111.61-49.93-111.61-114.13ZM3681.05,174.97h95.67c-1.68-27.27-19.72-46.15-45.73-46.15-30.21,0-44.9,18.04-49.93,46.15Z"/>
        <path class="cls-2" d="M3846.36,5.88h62.1l39.02,148.95c5.88,25.6,13.01,65.46,13.01,65.46h.84s7.55-37.34,13.85-63.78l32.73-150.63h58.74l32.73,150.21c6.29,26.43,13.85,64.2,13.85,64.2h.84s8.81-39.86,14.69-65.88l37.76-148.53h60l-85.6,300h-56.64l-36.5-160.7c-5.04-21.82-10.49-53.29-10.49-53.29h-.84s-4.62,31.47-9.65,53.29l-36.92,160.7h-56.22L3846.36,5.88Z"/>
        <path class="cls-2" d="M4352.79,281.96h-.84c-10.91,16.36-26.43,28.95-63.36,28.95-44.06,0-75.11-23.08-75.11-65.88,0-47.41,38.6-62.52,86.44-69.23,35.66-5.04,52.03-7.97,52.03-24.34,0-15.52-12.17-25.59-36.08-25.59-26.85,0-39.86,9.65-41.54,30.21h-50.77c1.68-37.76,29.79-70.91,92.73-70.91s90.63,28.95,90.63,79.3v109.51c0,16.36,2.52,26.01,7.55,29.79v2.1h-54.97c-3.36-4.2-5.46-14.27-6.71-23.92ZM4353.21,229.93v-32.31c-10.07,5.88-25.59,9.23-39.86,12.59-29.79,6.71-44.48,13.43-44.48,33.57s13.43,27.27,33.57,27.27c32.73,0,50.77-20.14,50.77-41.12Z"/>
        <path class="cls-2" d="M4497.96,125.04h1.26c13.01-24.34,27.69-36.92,52.87-36.92,6.29,0,10.07.42,13.43,1.68v49.93h-1.26c-37.34-3.78-64.2,15.94-64.2,61.26v104.9h-57.06V90.63h54.97v34.41Z"/>
        <path class="cls-2" d="M4573.48,198.04c0-63.78,43.22-113.29,106.16-113.29,69.23,0,106.16,52.87,106.16,129.65h-156.09c4.2,33.15,22.66,53.71,54.97,53.71,22.24,0,35.25-10.07,41.54-26.43h56.22c-7.97,38.18-41.96,70.49-97.34,70.49-71.33,0-111.61-49.93-111.61-114.13ZM4630.55,174.97h95.67c-1.68-27.27-19.72-46.15-45.73-46.15-30.21,0-44.9,18.04-49.93,46.15Z"/>
      </g>
    </g>
    <g id="To_Go_copy" data-name="To Go copy">
      <g>
        <path class="cls-2" d="M1503.26,419.7h233.52l-9.66,50.82h-86.94l-48.3,249.48h-60.06l48.3-249.48h-86.52l9.66-50.82Z"/>
        <path class="cls-2" d="M1672.94,625.92c0-68.04,47.88-127.26,121.38-127.26,55.02,0,99.54,34.44,99.54,98.28,0,68.88-46.2,129.36-119.7,129.36-56.28,0-101.22-34.44-101.22-100.38ZM1775.42,683.88c43.68,0,62.16-47.46,62.16-88.62,0-28.14-13.02-54.18-46.2-54.18-43.26,0-62.16,46.62-62.16,88.2,0,29.4,13.02,54.6,46.2,54.6Z"/>
        <path class="cls-2" d="M2196.25,683.04h-.84c-19.74,27.3-49.56,43.26-86.52,43.26-70.14,0-119.7-45.36-119.7-127.68,0-93.24,64.26-185.22,163.8-184.8,61.32.42,111.3,31.08,115.92,100.38h-58.38c-3.36-31.5-26.46-50.4-62.16-50.4-63.84,0-97.86,67.2-97.86,133.98,0,49.98,23.1,79.8,71.4,79.8,43.26,0,75.6-27.72,82.74-70.56h-70.98l8.82-46.62h124.32l-30.66,159.6h-44.94l5.04-36.96Z"/>
        <path class="cls-2" d="M2282.35,625.92c0-68.04,47.88-127.26,121.38-127.26,55.02,0,99.54,34.44,99.54,98.28,0,68.88-46.2,129.36-119.7,129.36-56.28,0-101.22-34.44-101.22-100.38ZM2384.83,683.88c43.68,0,62.16-47.46,62.16-88.62,0-28.14-13.02-54.18-46.2-54.18-43.26,0-62.16,46.62-62.16,88.2,0,29.4,13.02,54.6,46.2,54.6Z"/>
      </g>
      <g>
        <path class="cls-2" d="M2646.39,501.73h87.61c18.01,0,33.88,4.27,45.18,13.43,10.68,8.55,17.09,21.67,17.09,39.38,0,25.64-14.65,43.65-40.3,50.98v.92c22.29,6.11,33.88,21.37,33.58,45.48,0,17.71-6.72,32.97-20.15,45.79-14.96,14.35-34.8,22.28-64.41,22.28h-100.74l42.13-218.27ZM2654.93,683.67h50.37c24.12,0,39.99-10.68,39.99-33.58,0-18.62-12.52-27.78-30.83-27.78h-47.62l-11.91,61.36ZM2718.43,589.96c18.01,0,35.41-5.8,35.41-29.61,0-13.74-7.63-22.9-25.64-22.9h-44.87l-10.07,52.51h45.18Z"/>
        <path class="cls-2" d="M2845.42,653.15c0,24.73,8.24,39.68,32.05,39.68,14.35,0,26.25-6.1,32.05-19.54h40.3c-4.88,14.65-13.13,26.56-24.12,35.11-13.13,10.38-29.92,15.87-48.84,16.18-40.6,0-72.04-22.59-72.04-72.04,0-45.48,33.27-93.41,83.95-93.41,17.09,0,29,3.36,39.38,10.07,23.51,15.26,32.05,46.4,26.25,83.95h-108.98ZM2849.08,624.76h67.46c.61-18.32-7.63-33.88-28.7-33.88s-33.27,15.57-38.77,33.88Z"/>
        <path class="cls-2" d="M2976.99,563.4h19.84l9.46-48.84h39.99l-9.46,48.84h26.25l-5.19,27.47h-26.25l-15.87,81.51c-2.44,12.21,1.53,17.09,11.6,17.09,4.58,0,12.21-.61,12.21-.61l-5.8,30.53s-10.38.92-18.62.92c-31.75,0-46.71-11.6-40.3-43.96l16.79-85.47h-19.84l5.19-27.47Z"/>
        <path class="cls-2" d="M3149.46,702.91h-.61c-9.46,10.07-21.06,20.76-43.65,20.76-24.12,0-49.76-13.74-49.76-46.1,0-41.52,32.97-49.15,71.13-52.2,29.31-2.44,40.6-3.66,40.6-19.23,0-11.29-8.85-17.4-24.42-17.4-17.1,0-28.39,6.72-32.05,22.28h-36.63c5.19-32.05,29.92-51.59,70.21-51.59s68.07,16.79,59.53,62.27l-14.65,75.1c-2.14,10.68-1.22,18.01,1.22,21.67v1.53h-38.77c-1.83-3.36-2.44-10.07-2.14-17.09ZM3118.32,695.27c21.37,0,35.11-13.43,38.16-27.78l4.88-24.73c-7.94,3.66-16.48,5.49-29.92,7.94-14.96,2.75-36.63,1.83-36.63,23.2,0,14.04,9.77,21.37,23.51,21.37Z"/>
      </g>
    </g>
  </g>
</svg>
