<?xml version="1.0" encoding="UTF-8"?>
<svg xmlns="http://www.w3.org/2000/svg" viewBox="0 0 192 199.47">
  <defs>
    <style>
      .cls-1 {
        fill: #231f20;
      }

      .cls-2 {
        font-family: NHaasGroteskDSPro-66MdIt, 'Neue Haas Grotesk Display Pro';
        font-size: 60px;
        font-style: italic;
        font-weight: 500;
      }

      .cls-2, .cls-3 {
        fill: #fff;
      }

      .cls-4 {
        letter-spacing: -.09em;
      }

      .cls-5 {
        letter-spacing: 0em;
      }
    </style>
  </defs>
  <g id="Layer_2" data-name="Layer 2">
    <rect class="cls-1" width="192" height="192"/>
  </g>
  <g id="To_Go" data-name="To Go">
    <g>
      <path class="cls-3" d="M37.84,13.29h15.1l7.47,26.57c1.85,6.66,3.33,14.28,3.33,14.28h.15s1.41-7.62,3.26-14.28l7.47-26.57h15.32v52.91h-9.99v-30.34c0-4.29.44-10.95.44-10.95h-.15s-1.18,6.22-2.29,10.06l-9.1,31.23h-10.29l-8.88-31.23c-1.11-3.85-2.29-10.06-2.29-10.06h-.15s.44,6.66.44,10.95v30.34h-9.84V13.29Z"/>
      <path class="cls-3" d="M98.15,13.29h10.73v52.91h-10.73V13.29Z"/>
      <path class="cls-3" d="M114.35,13.29h42.55v9.03h-15.91v43.89h-10.73V22.32h-15.91v-9.03Z"/>
      <path class="cls-3" d="M11.68,103.66c0-15.84,9.92-27.6,25.53-27.6s25.46,11.77,25.46,27.6-9.84,27.53-25.46,27.53-25.53-11.69-25.53-27.53ZM51.71,103.66c0-10.58-4.74-18.8-14.43-18.8s-14.65,8.21-14.65,18.8,4.96,18.72,14.65,18.72,14.43-8.21,14.43-18.72Z"/>
      <path class="cls-3" d="M66.22,103.73c0-15.69,9.77-27.68,25.38-27.68,13.03,0,20.72,7.77,21.83,17.84h-10.66c-.96-5.33-4.96-8.81-11.17-8.81-9.77,0-14.43,8.14-14.43,18.65s5.62,18.58,14.5,18.58c6.29,0,10.73-3.77,11.4-9.33h10.51c-.3,4.66-2.29,9.18-5.85,12.51-3.63,3.4-8.73,5.62-16.06,5.62-14.88,0-25.46-11.47-25.46-27.38Z"/>
      <path class="cls-3" d="M114.69,77.09h10.95l6.88,26.27c1.04,4.51,2.29,11.54,2.29,11.54h.15s1.33-6.59,2.44-11.25l5.77-26.57h10.36l5.77,26.49c1.11,4.66,2.44,11.32,2.44,11.32h.15s1.55-7.03,2.59-11.62l6.66-26.2h10.58l-15.1,52.91h-9.99l-6.44-28.34c-.89-3.85-1.85-9.4-1.85-9.4h-.15s-.81,5.55-1.7,9.4l-6.51,28.34h-9.92l-15.39-52.91Z"/>
    </g>
    <text class="cls-2" transform="translate(22.35 183.69)"><tspan class="cls-4" x="0" y="0">T</tspan><tspan x="29.4" y="0">o </tspan><tspan class="cls-5" x="73.5" y="0">G</tspan><tspan x="116.46" y="0">o</tspan></text>
  </g>
</svg>
